# xmcd
#
# Track frame offsets:
#	150
#	15337
#	33675
#	51786
#	69917
#	82696
#	101103
#	117330
#	129235
#	149477
# Disc length: 2301 seconds
# Revision: 1
# Processed by: cddbd v1.5.2PL0 Copyright (c) Steve Scherf et al.
#
# Submitted via: libkcddb 0.31
#
DISCID=7d08fb0a
DTITLE=Boizinho Barrica - Terreiros de São João
DYEAR=1900
DGENRE=
TTITLE0=Inácio Pinheiro - Boizinho no Galope
TTITLE1=Roberto Brandão - Zabumba da Liberdade
TTITLE2=Inácio Pinheiro - Amor
TTITLE3=Roberto Brandão - Ah! Eu Chorei
TTITLE4=Inácio Pinheiro - Caroço de Dona Elza
TTITLE5=Roberto Brandão - Flor de Espinho
TTITLE6=Inácio Pinheiro - São Luis, Canto de Tambor
TTITLE7=Roberto Brandão - Vamos Namorar
TTITLE8=Inácio Pinheiro - Terreiros de São João
TTITLE9=Roberto Brandão - Santo Antônio
EXTD=
EXTT0=Luis Bulcão
EXTT1=Zé Pereira Godão
EXTT2=Luis Bulcão
EXTT3=Luis Bulcão
EXTT4=Zé Pereira Godão
EXTT5=Luis Bulcão
EXTT6=Zé Pereira Godão
EXTT7=Luis Bulcão
EXTT8=Zé Pereira Godão
EXTT9=
PLAYORDER=
